<svg width="21" height="20" viewBox="0 0 21 20" fill="none" xmlns="http://www.w3.org/2000/svg">
<g clip-path="url(#clip0_386_240)">
<path d="M0.5 0.833313H4.47L4.92417 2.49998H19.9892L16.9342 11.6666H6.98333L6.56667 13.3333H18.8333V15H4.43333L5.47167 10.8425L3.19667 2.49998H0.5V0.833313ZM3.83333 17.5C3.83333 17.058 4.00893 16.634 4.32149 16.3215C4.63405 16.0089 5.05797 15.8333 5.5 15.8333C5.94203 15.8333 6.36595 16.0089 6.67851 16.3215C6.99107 16.634 7.16667 17.058 7.16667 17.5C7.16667 17.942 6.99107 18.3659 6.67851 18.6785C6.36595 18.9911 5.94203 19.1666 5.5 19.1666C5.05797 19.1666 4.63405 18.9911 4.32149 18.6785C4.00893 18.3659 3.83333 17.942 3.83333 17.5ZM15.5 17.5C15.5 17.058 15.6756 16.634 15.9882 16.3215C16.3007 16.0089 16.7246 15.8333 17.1667 15.8333C17.6087 15.8333 18.0326 16.0089 18.3452 16.3215C18.6577 16.634 18.8333 17.058 18.8333 17.5C18.8333 17.942 18.6577 18.3659 18.3452 18.6785C18.0326 18.9911 17.6087 19.1666 17.1667 19.1666C16.7246 19.1666 16.3007 18.9911 15.9882 18.6785C15.6756 18.3659 15.5 17.942 15.5 17.5Z" fill="white"/>
</g>
<defs>
<clipPath id="clip0_386_240">
<rect width="20" height="20" fill="white" transform="translate(0.5)"/>
</clipPath>
</defs>
</svg>
