<svg width="50" height="40" viewBox="0 0 50 40" fill="none" xmlns="http://www.w3.org/2000/svg">
<g clip-path="url(#clip0_386_11)">
<mask id="mask0_386_11" style="mask-type:luminance" maskUnits="userSpaceOnUse" x="0" y="0" width="50" height="40">
<path d="M0 0.0944824H49.8598V39.9915H0V0.0944824Z" fill="white"/>
</mask>
<g mask="url(#mask0_386_11)">
<path fill-rule="evenodd" clip-rule="evenodd" d="M3.0796 23.6326H46.7805V16.8265H3.0796V23.6326ZM37.9721 29.7177C37.9721 29.7177 32.332 34.8124 24.9299 36.6509C17.528 34.8124 11.8905 29.7177 11.8905 29.7177C13.5711 28.722 14.1381 27.4366 14.3272 26.6404H35.5336C35.724 27.4366 36.2894 28.722 37.9721 29.7177ZM11.8417 9.38753C11.8417 9.38753 18.1963 9.71746 24.9299 4.76455C31.6638 9.71746 38.018 9.38753 38.018 9.38753C35.9576 11.4568 35.6147 13.1078 35.5728 13.8185H14.2859C14.245 13.1078 13.903 11.4568 11.8417 9.38753ZM49.8598 13.8185H38.906C38.9698 12.097 41.2191 11.2741 41.2191 11.2741V6.84016C28.9876 6.18016 24.9299 0.0944824 24.9299 0.0944824C24.9299 0.0944824 20.8723 6.18016 8.64124 6.84016V11.2741C8.64124 11.2741 10.8899 12.097 10.9542 13.8185H0V26.6404H10.9175C10.2935 28.8509 7.1829 29.4109 7.1829 29.4109C16.0947 38.5386 24.9299 40 24.9299 40C24.9299 40 33.7664 38.5386 42.6769 29.4109C42.6769 29.4109 39.5655 28.8509 38.9435 26.6404H49.8598V13.8185Z" fill="white"/>
</g>
<path fill-rule="evenodd" clip-rule="evenodd" d="M44.1764 30.0414C43.7922 30.0414 43.4796 29.7328 43.4796 29.3502C43.4796 28.9709 43.7922 28.6616 44.1764 28.6616C44.5576 28.6616 44.8738 28.9709 44.8738 29.3502C44.8738 29.7328 44.5576 30.0414 44.1764 30.0414ZM44.1764 28.5656C43.7401 28.5656 43.3816 28.9192 43.3816 29.3502C43.3816 29.7843 43.7401 30.1343 44.1764 30.1343C44.6098 30.1343 44.9682 29.7843 44.9682 29.3502C44.9682 28.9192 44.6098 28.5656 44.1764 28.5656Z" fill="white"/>
<path fill-rule="evenodd" clip-rule="evenodd" d="M44.1931 29.3212H43.9679V28.9968H44.1931C44.3103 28.9968 44.4145 29.0121 44.411 29.1539C44.4077 29.2987 44.3136 29.3212 44.1931 29.3212ZM44.525 29.546C44.5222 29.4885 44.5119 29.4465 44.4955 29.4207C44.4797 29.3985 44.4537 29.3789 44.4145 29.3694C44.5056 29.328 44.5475 29.2474 44.5475 29.1507C44.5475 29.0958 44.5382 29.0511 44.5159 29.0121C44.4537 28.8932 44.3296 28.8834 44.2158 28.8834H43.8379V29.8424H43.9679V29.4336H44.1832C44.1867 29.4336 44.1867 29.4336 44.1896 29.4336C44.2745 29.4336 44.3296 29.443 44.3525 29.4626C44.3752 29.4817 44.3918 29.5237 44.3948 29.5881L44.4015 29.7099C44.4015 29.7457 44.4077 29.8099 44.4274 29.8424H44.5775C44.5517 29.8033 44.5413 29.7552 44.535 29.7073L44.525 29.546Z" fill="white"/>
</g>
<defs>
<clipPath id="clip0_386_11">
<rect width="50" height="40" fill="white"/>
</clipPath>
</defs>
</svg>
