<svg width="22" height="22" viewBox="0 0 22 22" fill="none" xmlns="http://www.w3.org/2000/svg">
<path d="M18.875 18.875L13.625 13.625M3.125 9.25C3.125 10.0543 3.28343 10.8508 3.59124 11.5939C3.89905 12.3371 4.35021 13.0123 4.91897 13.581C5.48773 14.1498 6.16294 14.601 6.90606 14.9088C7.64918 15.2166 8.44565 15.375 9.25 15.375C10.0543 15.375 10.8508 15.2166 11.5939 14.9088C12.3371 14.601 13.0123 14.1498 13.581 13.581C14.1498 13.0123 14.601 12.3371 14.9088 11.5939C15.2166 10.8508 15.375 10.0543 15.375 9.25C15.375 8.44565 15.2166 7.64918 14.9088 6.90606C14.601 6.16294 14.1498 5.48773 13.581 4.91897C13.0123 4.35021 12.3371 3.89905 11.5939 3.59124C10.8508 3.28343 10.0543 3.125 9.25 3.125C8.44565 3.125 7.64918 3.28343 6.90606 3.59124C6.16294 3.89905 5.48773 4.35021 4.91897 4.91897C4.35021 5.48773 3.89905 6.16294 3.59124 6.90606C3.28343 7.64918 3.125 8.44565 3.125 9.25Z" stroke="white" stroke-width="2" stroke-linecap="round" stroke-linejoin="round"/>
</svg>
