<svg width="25" height="24" viewBox="0 0 25 24" fill="none" xmlns="http://www.w3.org/2000/svg">
<path d="M12.5 12.75C16.442 12.75 20.487 15.313 20.749 20.462C20.7591 20.6605 20.69 20.8548 20.5568 21.0024C20.4237 21.15 20.2375 21.2387 20.039 21.249C17.959 21.355 8.32599 21.42 4.96199 21.249C4.76335 21.2389 4.57685 21.1503 4.44351 21.0027C4.31017 20.8552 4.24092 20.6606 4.25099 20.462C4.51299 15.314 8.55799 12.75 12.5 12.75ZM12.5 3.75C11.5054 3.75 10.5516 4.14509 9.84834 4.84835C9.14508 5.55161 8.74999 6.50544 8.74999 7.5C8.74999 8.49456 9.14508 9.44839 9.84834 10.1517C10.5516 10.8549 11.5054 11.25 12.5 11.25C13.4946 11.25 14.4484 10.8549 15.1516 10.1517C15.8549 9.44839 16.25 8.49456 16.25 7.5C16.25 6.50544 15.8549 5.55161 15.1516 4.84835C14.4484 4.14509 13.4946 3.75 12.5 3.75Z" fill="white"/>
</svg>
